<svg width="16" height="16" viewBox="0 0 16 16" fill="none" xmlns="http://www.w3.org/2000/svg"><path d="M9.2215 11.045C9.35918 11.1082 9.5143 11.1227 9.66129 11.086C9.80828 11.0493 9.93839 10.9636 10.0302 10.843L10.2668 10.533C10.391 10.3674 10.5521 10.233 10.7372 10.1404C10.9224 10.0479 11.1265 9.99967 11.3335 9.99967H13.3335C13.6871 9.99967 14.0263 10.1402 14.2763 10.3902C14.5264 10.6402 14.6668 10.9794 14.6668 11.333V13.333C14.6668 13.6866 14.5264 14.0258 14.2763 14.2758C14.0263 14.5259 13.6871 14.6663 13.3335 14.6663C10.1509 14.6663 7.09865 13.4021 4.84821 11.1516C2.59778 8.90119 1.3335 5.84894 1.3335 2.66634C1.3335 2.31272 1.47397 1.97358 1.72402 1.72353C1.97407 1.47348 2.31321 1.33301 2.66683 1.33301H4.66683C5.02045 1.33301 5.35959 1.47348 5.60964 1.72353C5.85969 1.97358 6.00016 2.31272 6.00016 2.66634V4.66634C6.00016 4.87333 5.95197 5.07749 5.8594 5.26263C5.76683 5.44777 5.63242 5.60881 5.46683 5.73301L5.15483 5.96701C5.03244 6.06046 4.94618 6.1934 4.91069 6.34324C4.8752 6.49308 4.89268 6.65059 4.96016 6.78901C5.87128 8.63959 7.36978 10.1362 9.2215 11.045Z" stroke="white" stroke-linecap="round" stroke-linejoin="round"/></svg>
