<svg preserveAspectRatio="none" width="100%" height="100%" overflow="visible" style="display: block;" viewBox="0 0 640 524" fill="none" xmlns="http://www.w3.org/2000/svg">
<g id="Mask group">
<mask id="mask0_0_96" style="mask-type:alpha" maskUnits="userSpaceOnUse" x="0" y="0" width="640" height="524">
<path id="Rectangle 276" d="M0 8.00001C0 3.58173 3.58172 0 8 0H632C636.418 0 640 3.58172 640 8V516C640 520.418 636.418 524 632 524H7.99999C3.58171 524 0 520.418 0 516V8.00001Z" fill="url(#paint0_linear_0_96)"/>
</mask>
<g mask="url(#mask0_0_96)">
<g id="Ellipse 21" opacity="0.65" filter="url(#filter0_f_0_96)">
<circle cx="320" cy="363" r="390" fill="url(#paint1_radial_0_96)"/>
</g>
<g id="Ellipse 22" opacity="0.65" filter="url(#filter1_f_0_96)">
<circle cx="320" cy="-72" r="320" fill="url(#paint2_radial_0_96)"/>
</g>
</g>
</g>
<defs>
<filter id="filter0_f_0_96" x="-130" y="-87" width="900" height="900" filterUnits="userSpaceOnUse" color-interpolation-filters="sRGB">
<feFlood flood-opacity="0" result="BackgroundImageFix"/>
<feBlend mode="normal" in="SourceGraphic" in2="BackgroundImageFix" result="shape"/>
<feGaussianBlur stdDeviation="30" result="effect1_foregroundBlur_0_96"/>
</filter>
<filter id="filter1_f_0_96" x="-60" y="-452" width="760" height="760" filterUnits="userSpaceOnUse" color-interpolation-filters="sRGB">
<feFlood flood-opacity="0" result="BackgroundImageFix"/>
<feBlend mode="normal" in="SourceGraphic" in2="BackgroundImageFix" result="shape"/>
<feGaussianBlur stdDeviation="30" result="effect1_foregroundBlur_0_96"/>
</filter>
<linearGradient id="paint0_linear_0_96" x1="320" y1="0" x2="320" y2="524" gradientUnits="userSpaceOnUse">
<stop stop-color="#78C8FE"/>
<stop offset="0.4375" stop-color="#9FD0F8"/>
<stop offset="0.629808" stop-color="#A7D2F7"/>
<stop offset="1" stop-color="#26A6FF"/>
</linearGradient>
<radialGradient id="paint1_radial_0_96" cx="0" cy="0" r="1" gradientUnits="userSpaceOnUse" gradientTransform="translate(320 363) rotate(90) scale(390)">
<stop stop-color="#0077FF"/>
<stop offset="1" stop-color="#D4E7FA" stop-opacity="0.2"/>
</radialGradient>
<radialGradient id="paint2_radial_0_96" cx="0" cy="0" r="1" gradientUnits="userSpaceOnUse" gradientTransform="translate(320 -72) rotate(90) scale(320)">
<stop stop-color="#0093FF"/>
<stop offset="1" stop-color="#D4E7FA" stop-opacity="0.5"/>
</radialGradient>
</defs>
</svg>
