<svg preserveAspectRatio="none" overflow="visible" style="display: block;" width="15.499" height="11.2979" viewBox="0 0 15.499 11.2979" fill="none" xmlns="http://www.w3.org/2000/svg">
<g id="Group 226">
<path id="Vector" d="M0.793748 5.4054C0.735417 5.56254 0.735417 5.73539 0.793748 5.89254C1.36187 7.27007 2.32622 8.4479 3.56455 9.27669C4.80287 10.1055 6.25941 10.5479 7.74949 10.5479C9.23958 10.5479 10.6961 10.1055 11.9344 9.27669C13.1728 8.4479 14.1371 7.27007 14.7052 5.89254C14.7636 5.73539 14.7636 5.56254 14.7052 5.4054C14.1371 4.02786 13.1728 2.85004 11.9344 2.02124C10.6961 1.19244 9.23958 0.75 7.74949 0.75C6.25941 0.75 4.80287 1.19244 3.56455 2.02124C2.32622 2.85004 1.36187 4.02786 0.793748 5.4054Z" stroke="#061023" stroke-width="1.5" stroke-linecap="round" stroke-linejoin="round"/>
<path id="Vector_2" d="M7.74948 7.74871C8.90914 7.74871 9.84922 6.80863 9.84922 5.64897C9.84922 4.48932 8.90914 3.54923 7.74948 3.54923C6.58983 3.54923 5.64974 4.48932 5.64974 5.64897C5.64974 6.80863 6.58983 7.74871 7.74948 7.74871Z" stroke="#061023" stroke-width="1.5" stroke-linecap="round" stroke-linejoin="round"/>
</g>
</svg>
