<svg preserveAspectRatio="none" width="100%" height="100%" overflow="visible" style="display: block;" viewBox="0 0 9 11" fill="none" xmlns="http://www.w3.org/2000/svg">
<g id="Group 274">
<path id="Vector" d="M1.5 10.5C1.23478 10.5 0.980429 10.3946 0.792893 10.2071C0.605357 10.0196 0.5 9.76522 0.5 9.5V1.5C0.5 1.23478 0.605357 0.980431 0.792893 0.792895C0.980429 0.605358 1.23478 0.500002 1.5 0.500002H5.5C5.65828 0.499745 5.81504 0.530803 5.96126 0.591386C6.10749 0.651969 6.24028 0.740881 6.352 0.853002L8.146 2.647C8.25842 2.75875 8.34758 2.89167 8.40834 3.03808C8.4691 3.18449 8.50026 3.34149 8.5 3.5V9.5C8.5 9.76522 8.39464 10.0196 8.2071 10.2071C8.01957 10.3946 7.76521 10.5 7.5 10.5H1.5Z" fill="var(--fill-0, #8F94A2)" stroke="var(--stroke-0, white)" stroke-linecap="round" stroke-linejoin="round"/>
</g>
</svg>
