<svg preserveAspectRatio="none" width="100%" height="100%" overflow="visible" style="display: block;" viewBox="0 0 12.2 15" fill="none" xmlns="http://www.w3.org/2000/svg">
<g id="Group 277">
<path id="Vector" d="M1.9 14.5C1.5287 14.5 1.1726 14.3525 0.91005 14.0899C0.647499 13.8274 0.5 13.4713 0.5 13.1V1.9C0.5 1.5287 0.647499 1.1726 0.91005 0.910053C1.1726 0.647502 1.5287 0.500002 1.9 0.500002H7.5C7.72159 0.499643 7.94106 0.543124 8.14577 0.62794C8.35048 0.712757 8.53639 0.837234 8.6928 0.994202L11.2044 3.5058C11.3618 3.66226 11.4866 3.84834 11.5717 4.05331C11.6567 4.25829 11.7004 4.47808 11.7 4.7V13.1C11.7 13.4713 11.5525 13.8274 11.2899 14.0899C11.0274 14.3525 10.6713 14.5 10.3 14.5H1.9Z" fill="var(--fill-0, white)" stroke="var(--stroke-0, #3B4252)" stroke-linecap="round" stroke-linejoin="round"/>
<g id="Group 280">
<path id="Vector_2" d="M10.5 13C9.71895 12.219 9.78105 12.2811 9 11.5001" stroke="var(--stroke-0, #131519)" stroke-width="2" stroke-linecap="round" stroke-linejoin="round"/>
<path id="Vector_3" d="M7 12C8.38071 12 9.5 10.8807 9.5 9.5C9.5 8.11929 8.38071 7 7 7C5.61929 7 4.5 8.11929 4.5 9.5C4.5 10.8807 5.61929 12 7 12Z" stroke="var(--stroke-0, #131519)" stroke-width="2" stroke-linecap="round" stroke-linejoin="round"/>
</g>
</g>
</svg>
