<svg preserveAspectRatio="none" width="100%" height="100%" overflow="visible" style="display: block;" viewBox="0 0 16 16" fill="none" xmlns="http://www.w3.org/2000/svg">
<g id="Frame">
<path id="Vector" d="M8 3.33333C8.00079 3.06669 7.94824 2.80258 7.84546 2.55653C7.74268 2.31049 7.59174 2.08748 7.40151 1.90063C7.21129 1.71378 6.98561 1.56685 6.73777 1.46849C6.48993 1.37013 6.22492 1.32232 5.95833 1.32787C5.69174 1.33343 5.42895 1.39224 5.18543 1.50084C4.9419 1.60945 4.72254 1.76565 4.54027 1.96027C4.35799 2.15489 4.21647 2.38399 4.12403 2.6341C4.0316 2.88421 3.9901 3.15028 4.002 3.41667C3.61013 3.51742 3.24633 3.70603 2.93815 3.96821C2.62997 4.23038 2.38549 4.55925 2.22323 4.9299C2.06097 5.30055 1.98517 5.70326 2.00159 6.10754C2.01801 6.51182 2.12621 6.90706 2.318 7.26333C1.98079 7.53729 1.71562 7.88949 1.54556 8.28929C1.3755 8.68909 1.30571 9.1244 1.34224 9.55733C1.37878 9.99026 1.52054 10.4077 1.7552 10.7733C1.98986 11.139 2.31031 11.4418 2.68867 11.6553C2.64194 12.0168 2.66983 12.3841 2.77059 12.7343C2.87136 13.0846 3.04286 13.4106 3.27452 13.692C3.50618 13.9734 3.79307 14.2043 4.11748 14.3705C4.44189 14.5367 4.79692 14.6346 5.16065 14.6582C5.52438 14.6818 5.88909 14.6306 6.23226 14.5077C6.57542 14.3849 6.88975 14.193 7.15584 13.9438C7.42193 13.6947 7.63412 13.3937 7.77931 13.0594C7.9245 12.725 7.99961 12.3645 8 12V3.33333Z" stroke="var(--stroke-0, white)" stroke-width="1.5" stroke-linecap="round" stroke-linejoin="round"/>
<path id="Vector_2" d="M6 8.66667C6.5597 8.46977 7.04845 8.11133 7.40445 7.63667C7.76045 7.16201 7.9677 6.59245 8 6" stroke="var(--stroke-0, white)" stroke-width="1.5" stroke-linecap="round" stroke-linejoin="round"/>
<path id="Vector_3" d="M4.002 3.41667C4.01518 3.73916 4.10622 4.05366 4.26733 4.33333" stroke="var(--stroke-0, white)" stroke-width="1.5" stroke-linecap="round" stroke-linejoin="round"/>
<path id="Vector_4" d="M2.318 7.264C2.43996 7.16467 2.57047 7.07633 2.708 7" stroke="var(--stroke-0, white)" stroke-width="1.5" stroke-linecap="round" stroke-linejoin="round"/>
<path id="Vector_5" d="M4 12C3.54055 12.0002 3.08884 11.8817 2.68867 11.656" stroke="var(--stroke-0, white)" stroke-width="1.5" stroke-linecap="round" stroke-linejoin="round"/>
<path id="Vector_6" d="M8 8.66667H10.6667" stroke="var(--stroke-0, white)" stroke-width="1.5" stroke-linecap="round" stroke-linejoin="round"/>
<path id="Vector_7" d="M8 12H12C12.3536 12 12.6928 12.1405 12.9428 12.3905C13.1929 12.6406 13.3333 12.9797 13.3333 13.3333V14" stroke="var(--stroke-0, white)" stroke-width="1.5" stroke-linecap="round" stroke-linejoin="round"/>
<path id="Vector_8" d="M8 5.33333H13.3333" stroke="var(--stroke-0, white)" stroke-width="1.5" stroke-linecap="round" stroke-linejoin="round"/>
<path id="Vector_9" d="M10.6667 5.33333V3.33333C10.6667 2.97971 10.8071 2.64057 11.0572 2.39052C11.3072 2.14048 11.6464 2 12 2" stroke="var(--stroke-0, white)" stroke-width="1.5" stroke-linecap="round" stroke-linejoin="round"/>
<path id="Vector_10" d="M10.6667 9C10.8508 9 11 8.85076 11 8.66667C11 8.48257 10.8508 8.33333 10.6667 8.33333C10.4826 8.33333 10.3333 8.48257 10.3333 8.66667C10.3333 8.85076 10.4826 9 10.6667 9Z" stroke="var(--stroke-0, white)" stroke-width="1.5" stroke-linecap="round" stroke-linejoin="round"/>
<path id="Vector_11" d="M12 2.33333C12.1841 2.33333 12.3333 2.18409 12.3333 2C12.3333 1.81591 12.1841 1.66667 12 1.66667C11.8159 1.66667 11.6667 1.81591 11.6667 2C11.6667 2.18409 11.8159 2.33333 12 2.33333Z" stroke="var(--stroke-0, white)" stroke-width="1.5" stroke-linecap="round" stroke-linejoin="round"/>
<path id="Vector_12" d="M13.3333 14.3333C13.5174 14.3333 13.6667 14.1841 13.6667 14C13.6667 13.8159 13.5174 13.6667 13.3333 13.6667C13.1492 13.6667 13 13.8159 13 14C13 14.1841 13.1492 14.3333 13.3333 14.3333Z" stroke="var(--stroke-0, white)" stroke-width="1.5" stroke-linecap="round" stroke-linejoin="round"/>
<path id="Vector_13" d="M13.3333 5.66667C13.5174 5.66667 13.6667 5.51743 13.6667 5.33333C13.6667 5.14924 13.5174 5 13.3333 5C13.1492 5 13 5.14924 13 5.33333C13 5.51743 13.1492 5.66667 13.3333 5.66667Z" stroke="var(--stroke-0, white)" stroke-width="1.5" stroke-linecap="round" stroke-linejoin="round"/>
</g>
</svg>
