<svg preserveAspectRatio="none" width="100%" height="100%" overflow="visible" style="display: block;" viewBox="0 0 16 16" fill="none" xmlns="http://www.w3.org/2000/svg">
<g id="Frame" clip-path="url(#clip0_0_4)">
<path id="Vector" d="M8 14.6667C11.6819 14.6667 14.6667 11.6819 14.6667 8C14.6667 4.3181 11.6819 1.33333 8 1.33333C4.3181 1.33333 1.33333 4.3181 1.33333 8C1.33333 11.6819 4.3181 14.6667 8 14.6667Z" stroke="var(--stroke-0, white)" stroke-width="1.5" stroke-linecap="round" stroke-linejoin="round"/>
<path id="Vector_2" d="M10.6667 5.33333H6.66667C6.31304 5.33333 5.97391 5.47381 5.72386 5.72386C5.47381 5.97391 5.33333 6.31304 5.33333 6.66667C5.33333 7.02029 5.47381 7.35943 5.72386 7.60948C5.97391 7.85952 6.31304 8 6.66667 8H9.33333C9.68696 8 10.0261 8.14048 10.2761 8.39052C10.5262 8.64057 10.6667 8.97971 10.6667 9.33333C10.6667 9.68696 10.5262 10.0261 10.2761 10.2761C10.0261 10.5262 9.68696 10.6667 9.33333 10.6667H5.33333" stroke="var(--stroke-0, white)" stroke-width="1.5" stroke-linecap="round" stroke-linejoin="round"/>
<path id="Vector_3" d="M8 12V4" stroke="var(--stroke-0, white)" stroke-width="1.5" stroke-linecap="round" stroke-linejoin="round"/>
</g>
<defs>
<clipPath id="clip0_0_4">
<rect width="16" height="16" fill="white"/>
</clipPath>
</defs>
</svg>
