<svg preserveAspectRatio="none" width="100%" height="100%" overflow="visible" style="display: block;" viewBox="0 0 32 32" fill="none" xmlns="http://www.w3.org/2000/svg">
<g id="ic_profile">
<g id="Rectangle 198">
</g>
<path id="Vector" d="M9 23.75C8.99996 22.4625 9.355 21.2 10.0261 20.1012C10.6971 19.0025 11.6582 18.1101 12.8036 17.5222C13.949 16.9343 15.2343 16.6736 16.5183 16.769C17.8022 16.8643 19.035 17.3119 20.081 18.0625" stroke="var(--stroke-0, #F7F7F7)" stroke-width="1.5" stroke-linecap="round" stroke-linejoin="round"/>
<path id="Vector_2" d="M23 23.75C23 22.4626 22.6451 21.2001 21.9743 20.1014C21.3034 19.0026 20.3427 18.1103 19.1976 17.5224C18.0526 16.9345 16.7676 16.6739 15.4841 16.7692C14.2006 16.8645 12.9682 17.3121 11.9225 18.0627" stroke="var(--stroke-0, #F7F7F7)" stroke-width="1.5" stroke-linecap="round" stroke-linejoin="round"/>
<path id="Vector_3" d="M16 16.75C18.4162 16.75 20.375 14.7912 20.375 12.375C20.375 9.95875 18.4162 8 16 8C13.5838 8 11.625 9.95875 11.625 12.375C11.625 14.7912 13.5838 16.75 16 16.75Z" stroke="var(--stroke-0, #F7F7F7)" stroke-width="1.5" stroke-linecap="round" stroke-linejoin="round"/>
</g>
</svg>
