<svg preserveAspectRatio="none" width="100%" height="100%" overflow="visible" style="display: block;" viewBox="0 0 28 28" fill="none" xmlns="http://www.w3.org/2000/svg">
<g id="Group 285">
<rect id="Rectangle 216" width="28" height="28" rx="6" fill="var(--fill-0, #FEEC23)" fill-opacity="0.1"/>
<path id="Vector" d="M20.8124 17.5011L15.2169 7.70896C15.0949 7.49367 14.9179 7.3146 14.7041 7.19002C14.4903 7.06543 14.2473 6.99979 13.9998 6.99979C13.7524 6.99979 13.5094 7.06543 13.2956 7.19002C13.0818 7.3146 12.9048 7.49367 12.7828 7.70896L7.18728 17.5011C7.06396 17.7147 6.99929 17.9571 6.99984 18.2037C7.00038 18.4504 7.06612 18.6925 7.19039 18.9055C7.31466 19.1185 7.49304 19.2949 7.70745 19.4168C7.92186 19.5387 8.16469 19.6017 8.4113 19.5995H19.6024C19.8478 19.5992 20.0889 19.5344 20.3013 19.4115C20.5138 19.2886 20.6902 19.112 20.8128 18.8994C20.9354 18.6868 20.9999 18.4457 20.9998 18.2002C20.9998 17.9548 20.9351 17.7137 20.8124 17.5011Z" stroke="var(--stroke-0, #FEEC23)" stroke-linecap="round" stroke-linejoin="round"/>
<path id="Vector_2" d="M14.007 11.2058V14.0036" stroke="var(--stroke-0, #FEEC23)" stroke-linecap="round" stroke-linejoin="round"/>
<path id="Vector_3" d="M14.007 16.8018H14.013" stroke="var(--stroke-0, #FEEC23)" stroke-linecap="round" stroke-linejoin="round"/>
</g>
</svg>
